<?xml version="1.0" encoding="UTF-8"?>
<svg width="120" height="120" viewBox="0 0 120 120" fill="none" xmlns="http://www.w3.org/2000/svg">
  <path d="M95 40H25C22.25 40 20 42.25 20 45V85C20 87.75 22.25 90 25 90H95C97.75 90 100 87.75 100 85V45C100 42.25 97.75 40 95 40ZM25 45H95V50H25V45ZM25 85V60H95V85H25Z" fill="url(#paint0_linear)"/>
  <path d="M35 75C38.3137 75 41 72.3137 41 69C41 65.6863 38.3137 63 35 63C31.6863 63 29 65.6863 29 69C29 72.3137 31.6863 75 35 75Z" fill="url(#paint1_linear)"/>
  <path d="M49 75C52.3137 75 55 72.3137 55 69C55 65.6863 52.3137 63 49 63C45.6863 63 43 65.6863 43 69C43 72.3137 45.6863 75 49 75Z" fill="url(#paint2_linear)"/>
  <defs>
    <linearGradient id="paint0_linear" x1="20" y1="40" x2="100" y2="90" gradientUnits="userSpaceOnUse">
      <stop stop-color="#00FF88"/>
      <stop offset="1" stop-color="#00CCFF"/>
    </linearGradient>
    <linearGradient id="paint1_linear" x1="29" y1="63" x2="41" y2="75" gradientUnits="userSpaceOnUse">
      <stop stop-color="#00FF88"/>
      <stop offset="1" stop-color="#00CCFF"/>
    </linearGradient>
    <linearGradient id="paint2_linear" x1="43" y1="63" x2="55" y2="75" gradientUnits="userSpaceOnUse">
      <stop stop-color="#00FF88"/>
      <stop offset="1" stop-color="#00CCFF"/>
    </linearGradient>
  </defs>
</svg>
