<?xml version="1.0" encoding="UTF-8"?>
<svg width="300" height="40" viewBox="0 0 300 40" fill="none" xmlns="http://www.w3.org/2000/svg">
  <!-- Credit Card -->
  <rect x="10" y="5" width="40" height="30" rx="3" fill="#333" stroke="url(#paint0_linear)" stroke-width="1"/>
  <rect x="15" y="25" width="30" height="5" rx="1" fill="url(#paint1_linear)"/>
  <rect x="15" y="10" width="30" height="5" rx="1" fill="url(#paint2_linear)"/>
  
  <!-- PayPal -->
  <rect x="70" y="5" width="40" height="30" rx="3" fill="#333" stroke="url(#paint3_linear)" stroke-width="1"/>
  <path d="M85 15C85 13.3431 86.3431 12 88 12H92C93.6569 12 95 13.3431 95 15V25C95 26.6569 93.6569 28 92 28H88C86.3431 28 85 26.6569 85 25V15Z" fill="url(#paint4_linear)"/>
  <rect x="80" y="18" width="5" height="10" rx="1" fill="url(#paint5_linear)"/>
  
  <!-- Pix -->
  <rect x="130" y="5" width="40" height="30" rx="3" fill="#333" stroke="url(#paint6_linear)" stroke-width="1"/>
  <path d="M145 10L150 15L145 20L140 15L145 10Z" fill="url(#paint7_linear)"/>
  <path d="M145 20L150 25L145 30L140 25L145 20Z" fill="url(#paint8_linear)"/>
  <path d="M155 15L160 20L155 25L150 20L155 15Z" fill="url(#paint9_linear)"/>
  <path d="M140 20L145 15L150 20L145 25L140 20Z" fill="url(#paint10_linear)"/>
  
  <!-- Boleto -->
  <rect x="190" y="5" width="40" height="30" rx="3" fill="#333" stroke="url(#paint11_linear)" stroke-width="1"/>
  <rect x="195" y="10" width="30" height="2" rx="1" fill="url(#paint12_linear)"/>
  <rect x="195" y="15" width="30" height="2" rx="1" fill="url(#paint13_linear)"/>
  <rect x="195" y="20" width="30" height="2" rx="1" fill="url(#paint14_linear)"/>
  <rect x="195" y="25" width="20" height="5" rx="1" fill="url(#paint15_linear)"/>
  
  <!-- Crypto -->
  <rect x="250" y="5" width="40" height="30" rx="3" fill="#333" stroke="url(#paint16_linear)" stroke-width="1"/>
  <circle cx="270" cy="20" r="10" fill="none" stroke="url(#paint17_linear)" stroke-width="2"/>
  <path d="M265 20H275M270 15V25" stroke="url(#paint18_linear)" stroke-width="2"/>
  
  <defs>
    <linearGradient id="paint0_linear" x1="10" y1="5" x2="50" y2="35" gradientUnits="userSpaceOnUse">
      <stop stop-color="#00FF88"/>
      <stop offset="1" stop-color="#00CCFF"/>
    </linearGradient>
    <linearGradient id="paint1_linear" x1="15" y1="25" x2="45" y2="30" gradientUnits="userSpaceOnUse">
      <stop stop-color="#00FF88"/>
      <stop offset="1" stop-color="#00CCFF"/>
    </linearGradient>
    <linearGradient id="paint2_linear" x1="15" y1="10" x2="45" y2="15" gradientUnits="userSpaceOnUse">
      <stop stop-color="#00FF88"/>
      <stop offset="1" stop-color="#00CCFF"/>
    </linearGradient>
    <linearGradient id="paint3_linear" x1="70" y1="5" x2="110" y2="35" gradientUnits="userSpaceOnUse">
      <stop stop-color="#00FF88"/>
      <stop offset="1" stop-color="#00CCFF"/>
    </linearGradient>
    <linearGradient id="paint4_linear" x1="85" y1="12" x2="95" y2="28" gradientUnits="userSpaceOnUse">
      <stop stop-color="#00FF88"/>
      <stop offset="1" stop-color="#00CCFF"/>
    </linearGradient>
    <linearGradient id="paint5_linear" x1="80" y1="18" x2="85" y2="28" gradientUnits="userSpaceOnUse">
      <stop stop-color="#00FF88"/>
      <stop offset="1" stop-color="#00CCFF"/>
    </linearGradient>
    <linearGradient id="paint6_linear" x1="130" y1="5" x2="170" y2="35" gradientUnits="userSpaceOnUse">
      <stop stop-color="#00FF88"/>
      <stop offset="1" stop-color="#00CCFF"/>
    </linearGradient>
    <linearGradient id="paint7_linear" x1="140" y1="10" x2="150" y2="20" gradientUnits="userSpaceOnUse">
      <stop stop-color="#00FF88"/>
      <stop offset="1" stop-color="#00CCFF"/>
    </linearGradient>
    <linearGradient id="paint8_linear" x1="140" y1="20" x2="150" y2="30" gradientUnits="userSpaceOnUse">
      <stop stop-color="#00FF88"/>
      <stop offset="1" stop-color="#00CCFF"/>
    </linearGradient>
    <linearGradient id="paint9_linear" x1="150" y1="15" x2="160" y2="25" gradientUnits="userSpaceOnUse">
      <stop stop-color="#00FF88"/>
      <stop offset="1" stop-color="#00CCFF"/>
    </linearGradient>
    <linearGradient id="paint10_linear" x1="140" y1="15" x2="150" y2="25" gradientUnits="userSpaceOnUse">
      <stop stop-color="#00FF88"/>
      <stop offset="1" stop-color="#00CCFF"/>
    </linearGradient>
    <linearGradient id="paint11_linear" x1="190" y1="5" x2="230" y2="35" gradientUnits="userSpaceOnUse">
      <stop stop-color="#00FF88"/>
      <stop offset="1" stop-color="#00CCFF"/>
    </linearGradient>
    <linearGradient id="paint12_linear" x1="195" y1="10" x2="225" y2="12" gradientUnits="userSpaceOnUse">
      <stop stop-color="#00FF88"/>
      <stop offset="1" stop-color="#00CCFF"/>
    </linearGradient>
    <linearGradient id="paint13_linear" x1="195" y1="15" x2="225" y2="17" gradientUnits="userSpaceOnUse">
      <stop stop-color="#00FF88"/>
      <stop offset="1" stop-color="#00CCFF"/>
    </linearGradient>
    <linearGradient id="paint14_linear" x1="195" y1="20" x2="225" y2="22" gradientUnits="userSpaceOnUse">
      <stop stop-color="#00FF88"/>
      <stop offset="1" stop-color="#00CCFF"/>
    </linearGradient>
    <linearGradient id="paint15_linear" x1="195" y1="25" x2="215" y2="30" gradientUnits="userSpaceOnUse">
      <stop stop-color="#00FF88"/>
      <stop offset="1" stop-color="#00CCFF"/>
    </linearGradient>
    <linearGradient id="paint16_linear" x1="250" y1="5" x2="290" y2="35" gradientUnits="userSpaceOnUse">
      <stop stop-color="#00FF88"/>
      <stop offset="1" stop-color="#00CCFF"/>
    </linearGradient>
    <linearGradient id="paint17_linear" x1="260" y1="10" x2="280" y2="30" gradientUnits="userSpaceOnUse">
      <stop stop-color="#00FF88"/>
      <stop offset="1" stop-color="#00CCFF"/>
    </linearGradient>
    <linearGradient id="paint18_linear" x1="265" y1="15" x2="275" y2="25" gradientUnits="userSpaceOnUse">
      <stop stop-color="#00FF88"/>
      <stop offset="1" stop-color="#00CCFF"/>
    </linearGradient>
  </defs>
</svg>
