<?xml version="1.0" encoding="UTF-8"?>
<svg width="600" height="60" viewBox="0 0 600 60" fill="none" xmlns="http://www.w3.org/2000/svg">
  <!-- Company 1 -->
  <rect x="20" y="10" width="80" height="40" rx="5" fill="none"/>
  <path d="M35 30C35 22.8203 40.8203 17 48 17H57C64.1797 17 70 22.8203 70 30C70 37.1797 64.1797 43 57 43H48C40.8203 43 35 37.1797 35 30Z" stroke="white" stroke-width="2"/>
  <path d="M50 25L55 30L50 35" stroke="white" stroke-width="2"/>
  <path d="M45 35L40 30L45 25" stroke="white" stroke-width="2"/>
  
  <!-- Company 2 -->
  <rect x="130" y="10" width="80" height="40" rx="5" fill="none"/>
  <circle cx="170" cy="30" r="15" stroke="white" stroke-width="2"/>
  <path d="M160 30H180M170 20V40" stroke="white" stroke-width="2"/>
  
  <!-- Company 3 -->
  <rect x="240" y="10" width="80" height="40" rx="5" fill="none"/>
  <path d="M260 20H300" stroke="white" stroke-width="2"/>
  <path d="M260 30H300" stroke="white" stroke-width="2"/>
  <path d="M260 40H300" stroke="white" stroke-width="2"/>
  
  <!-- Company 4 -->
  <rect x="350" y="10" width="80" height="40" rx="5" fill="none"/>
  <path d="M370 20L390 20L390 40L370 40L370 20Z" stroke="white" stroke-width="2"/>
  <path d="M390 20L410 30L390 40" stroke="white" stroke-width="2"/>
  
  <!-- Company 5 -->
  <rect x="460" y="10" width="80" height="40" rx="5" fill="none"/>
  <circle cx="480" cy="25" r="5" stroke="white" stroke-width="2"/>
  <circle cx="500" cy="25" r="5" stroke="white" stroke-width="2"/>
  <circle cx="520" cy="25" r="5" stroke="white" stroke-width="2"/>
  <path d="M480 35H520" stroke="white" stroke-width="2"/>
</svg>
